<?xml version="1.0" encoding="UTF-8" standalone="no"?>
<!-- Created with Inkscape (http://www.inkscape.org/) -->

<svg
   width="210mm"
   height="297mm"
   viewBox="0 0 210 297"
   version="1.1"
   id="svg1"
   xml:space="preserve"
   inkscape:version="1.4 (86a8ad7, 2024-10-11)"
   sodipodi:docname="drawing.svg"
   xmlns:inkscape="http://www.inkscape.org/namespaces/inkscape"
   xmlns:sodipodi="http://sodipodi.sourceforge.net/DTD/sodipodi-0.dtd"
   xmlns="http://www.w3.org/2000/svg"
   xmlns:svg="http://www.w3.org/2000/svg"><sodipodi:namedview
     id="namedview1"
     pagecolor="#ffffff"
     bordercolor="#000000"
     borderopacity="0.25"
     inkscape:showpageshadow="2"
     inkscape:pageopacity="0.0"
     inkscape:pagecheckerboard="0"
     inkscape:deskcolor="#d1d1d1"
     inkscape:document-units="mm"
     inkscape:zoom="0.5754394"
     inkscape:cx="-482.24018"
     inkscape:cy="496.1426"
     inkscape:window-width="3840"
     inkscape:window-height="2066"
     inkscape:window-x="-11"
     inkscape:window-y="-11"
     inkscape:window-maximized="1"
     inkscape:current-layer="layer1"
     showguides="false" /><defs
     id="defs1"><inkscape:path-effect
       effect="spiro"
       id="path-effect47"
       is_visible="true"
       lpeversion="1" /><inkscape:path-effect
       effect="spiro"
       id="path-effect46"
       is_visible="true"
       lpeversion="1" /><inkscape:path-effect
       effect="spiro"
       id="path-effect28"
       is_visible="true"
       lpeversion="1" /><inkscape:path-effect
       effect="spiro"
       id="path-effect19"
       is_visible="true"
       lpeversion="1" /><inkscape:path-effect
       effect="spiro"
       id="path-effect18"
       is_visible="true"
       lpeversion="1" /><inkscape:path-effect
       effect="spiro"
       id="path-effect17"
       is_visible="true"
       lpeversion="1" /><inkscape:path-effect
       effect="spiro"
       id="path-effect16"
       is_visible="true"
       lpeversion="1" /><inkscape:path-effect
       effect="bspline"
       id="path-effect1"
       is_visible="true"
       lpeversion="1.3"
       weight="33.333333"
       steps="2"
       helper_size="0"
       apply_no_weight="true"
       apply_with_weight="true"
       only_selected="false"
       uniform="false" /><inkscape:path-effect
       effect="spiro"
       id="path-effect46-5"
       is_visible="true"
       lpeversion="1" /><inkscape:path-effect
       effect="spiro"
       id="path-effect28-4"
       is_visible="true"
       lpeversion="1" /><inkscape:path-effect
       effect="spiro"
       id="path-effect18-5"
       is_visible="true"
       lpeversion="1" /><inkscape:path-effect
       effect="spiro"
       id="path-effect19-3"
       is_visible="true"
       lpeversion="1" /><inkscape:path-effect
       effect="spiro"
       id="path-effect17-4"
       is_visible="true"
       lpeversion="1" /><inkscape:path-effect
       effect="spiro"
       id="path-effect16-1"
       is_visible="true"
       lpeversion="1" /></defs><g
     inkscape:label="Layer 1"
     inkscape:groupmode="layer"
     id="layer1"><path
       style="fill:#fae89c;fill-opacity:1;stroke:#fae89c;stroke-width:7.8644;stroke-linecap:round;stroke-dasharray:none;stroke-opacity:1"
       d="m 106.27526,37.244381 c -7.418813,-0.234776 -13.662236,6.411348 -14.307322,13.568176 0.01146,1.974826 -1.80285,3.68757 -3.77892,3.11788 -2.39264,-0.44829 -2.299102,-3.331516 -2.171086,-5.18165 0.294542,-1.885536 -2.390589,-1.082601 -3.639222,-1.415429 -6.624198,-0.300992 -13.415263,2.50302 -17.356203,7.958028 -0.839793,1.392198 -2.493298,2.811486 -2.382962,4.539527 1.192562,0.936019 2.999558,0.211762 4.350427,0.877581 3.959387,1.229918 8.081529,2.88504 10.955764,5.97731 1.80503,2.101149 -1.377294,5.744848 -3.698915,4.225332 -4.43121,-3.048471 -9.736494,-5.324784 -15.226569,-4.655679 -9.419024,0.885748 -17.301819,9.553871 -17.228847,19.036609 -0.230132,5.741014 2.744745,11.021152 6.556058,15.077644 1.453904,1.77981 0.07709,4.93372 -2.350159,4.62221 -2.596552,0.15878 -3.556304,-3.06763 -5.499153,-4.09262 -6.895317,3.98655 -10.986569,12.96574 -8.112202,20.63834 1.942095,6.40404 7.972507,10.86876 14.43632,11.95426 5.893629,1.79446 12.167952,1.20231 18.24259,1.64349 29.659775,0.94255 59.341811,1.01943 89.013031,0.808 1.59431,-0.0204 3.28097,0.0903 4.51866,-1.07735 1.7988,-0.97469 3.85638,-2.33856 5.91019,-1.1528 5.70583,2.36021 12.7942,0.57171 16.5748,-4.33815 4.74423,-5.76814 3.8534,-15.09581 -1.9317,-19.83844 -3.72398,-3.64068 -9.28714,-3.48073 -14.09333,-3.11089 -1.87401,0.46647 -3.90221,-1.24853 -3.43665,-3.22837 0.008,-2.4332 3.00175,-2.7313 4.81017,-3.0747 6.55543,-1.283854 10.72949,-8.451253 9.38222,-14.843904 -1.02866,-6.744758 -7.49543,-12.113431 -14.35559,-11.623788 -6.84394,-0.160108 -12.9832,5.600295 -13.80122,12.310229 -0.17535,1.870014 -1.74116,3.755591 -3.77892,3.202971 -2.44866,-0.362346 -2.52345,-3.392783 -2.0479,-5.278805 1.52622,-8.451522 9.00038,-15.172504 17.43346,-16.352043 1.57947,-5.3e-4 1.15021,-1.676697 0.70486,-2.593367 -2.6537,-8.615884 -10.75224,-15.771004 -20.01667,-15.705606 -5.70876,-0.256938 -11.45858,3.121237 -13.47419,8.566868 -2.76097,8.555288 -11.43346,15.215097 -20.54689,14.486395 -4.49614,0.04228 -9.000823,-1.730658 -12.435966,-4.64634 -1.161267,-1.587585 -0.415703,-4.34507 1.703721,-4.649515 2.766459,-0.297918 4.747966,2.33644 7.409955,2.714212 6.84107,2.105062 14.71708,-1.701636 17.4417,-8.294793 1.41137,-2.948961 0.95463,-6.393097 0.70861,-9.545901 -1.7892,-6.334954 -7.84485,-10.933856 -14.48195,-10.624922 z m 27.19541,67.014099 c 4.50573,0.0395 8.32481,4.26488 7.98965,8.68117 -0.22124,5.09084 -6.14236,8.99948 -10.85924,6.82187 -4.30169,-1.50156 -6.5154,-6.93042 -4.29074,-10.92845 1.31175,-2.75968 4.16162,-4.409 7.16033,-4.57459 z m -62.885291,0.0851 c 4.275516,0.0568 8.267925,4.04299 7.750884,8.4151 0.02871,5.20723 -6.150274,9.26352 -10.85924,6.98633 -4.281295,-1.61863 -6.49826,-7.16476 -4.0869,-11.11895 1.40263,-2.58867 4.229174,-4.31168 7.195256,-4.28248 z m 25.513908,16.82829 c 1.945461,0.038 1.885257,2.6149 3.444912,3.3287 2.397451,1.65504 6.245891,2.58898 8.397321,0.0292 1.41441,-0.84232 2.11952,-3.45649 4.10023,-2.98961 1.55128,0.49209 1.5153,2.51731 0.35497,3.41633 -2.0808,2.39651 -4.62392,5.26848 -8.14395,4.8705 -4.17775,-0.15378 -8.883875,-2.62281 -9.982933,-6.92665 -0.153017,-1.06624 0.882758,-1.73464 1.82945,-1.72849 z"
       id="path49"
       sodipodi:nodetypes="cccccccccccccccccccccccccccccccccccccccccccccccccccccccccccc" /><path
       style="fill:#f2ebda;fill-opacity:1;stroke:#f2ebda;stroke-width:3.93221;stroke-linecap:round;stroke-dasharray:none;stroke-opacity:1"
       d="m 162.36853,139.94424 c -1.57192,0.058 -2.27078,2.18236 -3.91354,2.05552 -11.36678,0.26089 -22.73989,0.17117 -34.10936,0.18893 -24.429784,-0.0704 -48.869941,-0.5121 -73.275896,-1.46783 -1.513795,0.12946 -2.922188,-0.89873 -4.41869,-0.50102 -1.709806,0.53819 -1.724866,3.44104 0.09842,3.81733 6.623291,0.36902 13.266357,0.2758 19.893881,0.59069 18.629024,0.68829 37.262575,1.46849 55.908705,1.34242 12.91298,0.0315 25.87045,-0.21614 38.68743,-1.91469 1.15744,-0.12018 2.70438,-0.26808 3.06676,-1.61673 0.43534,-1.2193 -0.59681,-2.69853 -1.93772,-2.49462 z"
       id="path50" /><path
       style="fill:#ef4a50;fill-opacity:1;stroke:#ef4a50;stroke-width:5.18293;stroke-linecap:round;stroke-dasharray:none;stroke-opacity:1"
       d="m 94.062676,157.78203 c 1.109098,28.44349 1.759107,56.90049 2.858682,85.34445 0.669615,0.59302 1.964124,0.20986 2.848317,0.36696 4.135965,0.0509 8.272555,0.0188 12.408795,0.028 0.59645,-1.55884 0.27076,-3.42644 0.46108,-5.10457 0.89013,-26.51326 1.83356,-53.02652 2.53334,-79.54366 0.47431,-1.61258 -0.79491,-6.22838 -1.81659,-6.44443 -5.98643,-0.004 -13.12101,0.033 -19.098089,-0.3029 l -0.326792,2.53272 z"
       id="path40"
       sodipodi:nodetypes="cccccccccc" /><path
       style="fill:#ef4a50;fill-opacity:1;stroke:#ef4a50;stroke-width:3.66491;stroke-linecap:round;stroke-dasharray:none;stroke-opacity:1"
       d="m 48.187845,149.68656 c -0.113777,7.55571 0.953813,15.10058 1.854866,22.61249 2.407125,18.03466 5.415379,36.01477 9.185505,53.87563 1.12325,4.87303 2.032674,9.80922 3.754184,14.55903 0.113639,0.63531 0.748468,0.92865 1.443946,0.92237 2.888867,0.3925 5.801335,0.67711 8.720998,0.82196 0.427703,-0.54364 -0.07971,-1.48782 -0.0064,-2.17494 -3.038553,-30.08379 -6.085052,-60.16698 -9.128277,-90.25041 -1.163129,-0.43273 -2.618353,-0.2053 -3.901625,-0.30943 -3.968573,-0.0282 -7.98172,-0.16451 -11.92322,-0.0567 z"
       id="path48" /><path
       style="fill:#f2ebda;fill-opacity:1;stroke:#f2ebda;stroke-width:5.18293;stroke-linecap:round;stroke-dasharray:none;stroke-opacity:1"
       d="m 70.245657,150.78446 c 2.794512,28.99219 6.424013,62.6839 9.296544,91.69207 0.205576,0.80635 1.667089,0.26909 2.387456,0.48653 2.838399,0.0568 5.726692,0.33939 8.539507,0.26488 0.627963,-0.87127 0.01288,-2.08364 0.184631,-3.06292 -0.8652,-27.5801 -1.749786,-55.16047 -2.787405,-82.73595 -1.115297,-0.54037 -1.696419,-6.96212 -2.968506,-7.19719 -4.289787,-0.39304 -10.397851,0.99857 -14.652227,0.55258 z"
       id="path43"
       sodipodi:nodetypes="cccccccc" /><path
       style="fill:#f2ebda;fill-opacity:1;stroke:#f2ebda;stroke-width:5.18293;stroke-linecap:round;stroke-dasharray:none;stroke-opacity:1"
       d="m 137.71924,151.09463 c -5.12051,0.7303 -10.63111,1.7559 -15.77662,2.2955 -0.398,2.89262 -0.58446,10.29203 -0.77416,13.23779 -0.89325,25.57563 -1.78241,51.15149 -2.56438,76.72985 1.42515,0.38193 3.19756,0.0689 4.75996,0.15355 2.45322,-0.10294 5.06817,0.0309 7.40509,-0.393 2.81629,-28.97599 5.49821,-57.96303 8.42309,-86.93034 0.041,-0.67096 -1.031,-5.00081 -1.47298,-5.09335 z"
       id="path42"
       sodipodi:nodetypes="cccccccc" /><path
       style="fill:#d12439;fill-opacity:1;stroke:#d12439;stroke-width:5.18293;stroke-linecap:round;stroke-dasharray:none;stroke-opacity:1"
       d="m 159.43388,148.7964 c -4.38732,1.63836 -9.03393,2.65151 -13.58245,3.85966 -0.96659,0.6447 -0.37266,4.09998 -0.70635,4.98826 -2.80576,28.36352 -5.40457,56.7427 -8.2468,85.10315 1.30694,0.41579 2.963,0.0128 4.40269,-0.0435 2.00572,-0.31243 4.19891,-0.27327 6.05346,-1.02818 1.07051,-1.92953 1.17012,-4.18724 1.71656,-6.26355 3.46461,-18.59674 5.83902,-37.33215 8.04123,-56.0671 0.95677,-9.11281 2.16102,-18.21981 2.57631,-27.36559 -0.11146,-0.27841 0.25512,-3.17297 -0.25465,-3.18312 z"
       id="path41"
       sodipodi:nodetypes="cccccccccc" /><path
       style="display:none;opacity:0.318;fill:#070707;stroke:#000000;stroke-width:1.2;stroke-linecap:round;stroke-dasharray:none;stroke-opacity:1"
       d="m 44.081895,120.22923 c 0.02926,8.62608 10.146076,104.97846 15.223338,108.74865 4.078534,3.02853 33.931091,3.43468 50.393327,3.43468 9.88198,0 19.78178,-0.50994 29.63333,-1.05343 3.21051,-0.17712 9.43687,-0.16459 11.82622,-2.58869 6.55027,-6.64542 14.63211,-101.89537 14.63211,-108.89399 7.27369,0 14.04583,-0.42288 18.88178,-6.70278 5.58923,-7.25814 4.88482,-20.923765 1.32128,-28.927776 -1.4916,-3.350248 -3.65219,-6.649605 -7.15028,-8.113889 1.03263,-2.545301 2.37361,-4.912448 2.37471,-7.761111 0.004,-9.686295 -8.31652,-18.477295 -17.54415,-20.648933 -4.15115,-0.976943 -9.07564,1.961849 -13.07707,2.844117 -4.03865,-10.334877 -15.90162,-11.253732 -23.31772,-8.784602 -6.48983,2.160737 -15.28608,10.034529 -17.08579,7.494142 -8.47133,-11.957734 -18.081024,-15.112861 -35.796485,-5.940385 -2.023887,1.047901 -11.578859,-13.197527 -29.914458,0.362448 -5.03324,3.722301 -9.013349,14.5602 -8.865175,22.909324 0.04141,2.33331 1.943688,5.564648 1.496038,7.713741 -0.27674,1.32859 -2.369491,2.884449 -3.235429,3.927926 -2.221518,2.676979 -4.169292,5.649073 -5.610146,8.819444 -4.266049,9.386744 -1.87579,20.137854 5.237769,27.516664 2.858525,2.96512 6.307717,5.59231 10.576801,5.64445 M 40.20134,79.307005 h 0.352777 c 1.503238,1.611465 5.505774,6.020089 6.810572,1.411111 0.504351,-1.781545 -1.752725,-3.336413 -2.673599,-4.586111 -1.959366,-2.658989 -3.405975,-5.861108 -3.73683,-9.172222 -1.077462,-10.782955 6.590925,-22.773286 17.591523,-24.250199 4.861348,-0.652673 13.298303,2.703101 13.298303,2.703101 0,0 -3.920384,3.706138 -3.95282,7.103448 -0.05703,5.972916 8.797468,13.188398 7.449575,10.774596 -5.180428,-9.277095 -0.465187,-15.611562 4.183021,-17.850391 16.099518,-7.754391 24.419878,-0.216577 28.534588,7.64825 2.04609,3.910871 -2.79495,8.185989 -1.63204,7.474752 3.156,-1.930226 14.60388,4.35302 8.27885,-4.297209 -1.31564,-1.799293 3.15684,-6.001633 5.84981,-7.46252 9.35553,-5.07521 15.98802,-7.089248 23.97189,-0.997713 1.34679,1.027571 3.13412,5.088774 2.17919,6.128762 -1.81475,1.976387 -7.35128,12.321349 -3.03846,13.915257 2.58022,0.953585 -0.05,-5.247421 8.3642,-12.438697 8.77128,-7.496441 23.74831,-1.470375 24.21928,11.468965 -0.16556,5.020299 -3.04686,7.433391 -4.48322,8.558473 -1.43353,1.122864 -9.30626,7.14269 -7.79009,9.039297 2.92611,3.660316 7.94191,-5.777475 12.21515,-4.427839 4.20901,1.329348 6.04299,7.530495 7.34811,13.974478 1.16709,5.762463 -1.0429,13.217186 -3.45524,16.326856 -2.66817,3.43945 -9.64448,5.70334 -13.89551,4.06511 -1.85024,-0.71302 -2.85084,-2.23572 -4.98626,-2.62624 -6.62145,-1.21088 -13.75001,-1.18118 -20.46111,-1.43234 -23.60788,-0.88351 -48.030787,-1.523 -71.613886,0.0147 -6.296676,0.41057 -12.802071,0.23276 -19.049999,1.18246 -1.466475,0.22291 -2.959003,0.43219 -4.210466,1.29352 -0.964008,0.66348 -1.527152,2.03138 -2.851624,1.89128 -3.321608,-0.35135 -6.036973,-3.99705 -7.749678,-6.50516 -6.920411,-10.134306 -3.20149,-20.764611 4.933993,-28.927775 m 28.574999,4.385219 c -10.455854,1.984665 -7.278288,16.917816 3.012438,14.948637 10.214261,-1.954554 7.200746,-16.887246 -3.012438,-14.948637 m 63.147221,0 c -10.4578,1.985042 -7.36118,16.933686 3.01244,14.948637 10.19976,-1.951776 7.19205,-16.885599 -3.01244,-14.948637 M 90.295782,225.70978 78.940046,224.83599 c -3.94689,-35.91348 -5.602289,-73.08605 -8.645344,-109.10991 6.016076,-0.0732 12.835099,-0.92468 16.405244,-0.15693 0.297513,13.25201 0.506888,-4.68224 3.595836,110.1406 M 113.47522,115.69843 112.52078,226.06256 H 96.645782 c -0.239138,-1.26797 -1.656636,-99.88379 -1.981759,-110.36414 m 45.020647,1.00303 c -2.83707,36.22685 -5.7927,72.44409 -8.81944,108.65555 l -11.99445,0.35278 3.718,-110.6616 17.25845,0.6779 m -75.902528,0.84046 c 5.158009,46.02042 9.379393,104.33534 9.822468,108.27511 -2.025743,-10e-4 -7.909478,0.45448 -9.411766,-1.06399 -5.347405,-6.6462 -13.923509,-97.94147 -13.923509,-106.01788 m 109.361105,0 c -3.02123,44.97896 -10.37997,103.47413 -13.19976,106.01788 -1.83994,1.65983 -7.0382,1.22656 -9.37801,1.22656 3.04904,-35.97432 5.88788,-71.96598 8.81944,-107.94999 l 13.75833,0.70555"
       id="path2"
       sodipodi:nodetypes="csssscssccscssssssssscccsssccssssssssssscsssssssssssscccsccscccccccccccccccccsccsccc" /><path
       style="fill:#000000;fill-opacity:0;stroke:#000000;stroke-width:3.965;stroke-linecap:round;stroke-dasharray:none;stroke-opacity:1"
       d="m 96.07389,122.8878 c 3.569787,5.57359 10.82989,5.67852 15.44335,0.32513"
       id="path3"
       sodipodi:nodetypes="cc" /><path
       style="fill:none;fill-opacity:1;stroke:#efb533;stroke-width:7.1;stroke-linecap:round;stroke-dasharray:none;stroke-opacity:1"
       d="m 122.29981,60.783145 c 7.98904,-15.370228 33.08082,-13.425835 36.38728,10.69779"
       id="path5-6"
       sodipodi:nodetypes="cc" /><path
       style="fill:#000000;fill-opacity:0;stroke:#000000;stroke-width:5.5;stroke-linecap:round;stroke-dasharray:none"
       d="m 123.38424,57.050363 c 7.20286,-17.748979 36.59105,-13.513818 40.64037,12.192119"
       id="path5"
       sodipodi:nodetypes="cc" /><path
       style="fill:#000000;fill-opacity:0;stroke:#f9f3ce;stroke-width:6.1;stroke-linecap:round;stroke-dasharray:none;stroke-opacity:1"
       d="M 62.444522,60.749581 C 62.880658,60.269832 70.793307,38.871434 89.410021,45.03689"
       id="path6-7"
       sodipodi:nodetypes="cc" /><path
       style="fill:#000000;fill-opacity:0;stroke:#000000;stroke-width:5.5;stroke-linecap:round;stroke-dasharray:none"
       d="m 59.172412,59.651348 c 0,0 6.339901,-18.369458 27.310344,-14.793104"
       id="path6"
       sodipodi:nodetypes="cc" /><path
       style="fill:#000000;fill-opacity:0;stroke:#f9f3ce;stroke-width:6.4;stroke-linecap:round;stroke-dasharray:none;stroke-opacity:1"
       d="m 42.916256,118.9138 c -6.291923,-2.64778 -11.125093,-8.51663 -12.517243,-15.19952 -0.812711,-3.90134 -0.494449,-8.03149 0.906376,-11.762258 1.400826,-3.730769 3.879543,-7.049713 7.059142,-9.452024"
       id="path16-8"
       inkscape:path-effect="#path-effect16-1"
       inkscape:original-d="m 42.916256,118.9138 c -4.226602,-4.87685 -8.290638,-10.32267 -12.517243,-15.19952 -4.2266,-4.876843 11.406296,-16.220658 7.965518,-21.214282"
       sodipodi:nodetypes="csc"
       transform="translate(1.1751603,17.233664)" /><path
       style="fill:#000000;fill-opacity:0;stroke:#000000;stroke-width:5.5;stroke-linecap:round;stroke-dasharray:none"
       d="m 46.330049,115.0936 c -3.380593,-0.40083 -6.654928,-1.66756 -9.425098,-3.64625 -2.77017,-1.97869 -5.030371,-4.66521 -6.505938,-7.73307 -2.365497,-4.918123 -2.634898,-10.803295 -0.728619,-15.916964 1.90628,-5.113669 5.962351,-9.386386 10.97,-11.555939"
       id="path16"
       inkscape:path-effect="#path-effect16"
       inkscape:original-d="M 46.330049,115.0936 C 42.103447,110.21675 34.625616,108.59113 30.399013,103.71428 26.172413,98.837437 37.226599,85.4532 40.640394,76.241377"
       sodipodi:nodetypes="csc"
       transform="translate(0,21.286817)" /><path
       style="fill:#000000;fill-opacity:0;stroke:#f9f3ce;stroke-width:6.40001;stroke-linecap:round;stroke-dasharray:none;stroke-opacity:1"
       d="m 41.521937,77.919392 c -3.81057,-4.211671 -5.88739,-9.946989 -5.656884,-15.621976 0.230505,-5.674988 2.765628,-11.222979 6.905219,-15.111732 3.60292,-3.384602 8.37814,-5.496783 13.30616,-5.885598 4.928021,-0.388815 9.975392,0.948376 14.064511,3.726085"
       id="path17-3"
       inkscape:path-effect="#path-effect17-4"
       inkscape:original-d="M 41.521937,77.919392 C 50.191888,65.78146 34.262883,59.323616 42.770272,47.185684 51.277661,35.047754 68.894639,44.159177 70.140943,45.026171"
       transform="translate(4.3959429,23.337429)"
       sodipodi:nodetypes="csc" /><path
       style="fill:#000000;fill-opacity:0;stroke:#000000;stroke-width:5.5;stroke-linecap:round;stroke-dasharray:none"
       d="m 46.004924,80.793102 c -4.019722,-3.648916 -6.640383,-8.802486 -7.221011,-14.200229 -0.580629,-5.397742 0.884035,-10.990765 4.035757,-15.411104 3.151722,-4.42034 7.961955,-7.627957 13.254192,-8.83832 5.292237,-1.210363 11.018542,-0.412508 15.778353,2.198422 1.266998,0.694995 2.466553,1.512873 3.576354,2.438423"
       id="path17"
       inkscape:path-effect="#path-effect17"
       inkscape:original-d="M 46.004924,80.793102 C 54.674875,68.65517 63.344826,56.679803 71.852215,44.541871 c 8.507389,-12.13793 2.33005,1.571429 3.576354,2.438423"
       transform="translate(0,21.286817)" /><path
       style="fill:none;fill-opacity:1;stroke:#efb533;stroke-width:6.92437;stroke-linecap:round;stroke-dasharray:none;stroke-opacity:1"
       d="m 86.494982,105.59067 c 4.26505,-0.98921 8.288894,-3.00253 11.637719,-5.822915 2.872589,-2.419301 5.258529,-5.445822 6.768119,-8.884712 1.50958,-3.43889 2.12264,-7.293579 1.56838,-11.008092 -0.65106,-4.36327 -2.93761,-8.462872 -6.30786,-11.309522 -3.370249,-2.846649 -7.794545,-4.41529 -12.205245,-4.327388 -4.410701,0.0879 -8.768985,1.83157 -12.023143,4.810238 -3.254158,2.978667 -5.375548,7.166116 -5.852252,11.551861"
       id="path18-3"
       inkscape:path-effect="#path-effect18-5"
       inkscape:original-d="m 86.494982,105.59067 c 7.532009,6.44828 4.105699,-12.271189 11.637719,-5.822915 7.532019,6.448275 3.297089,-13.715464 8.336499,-19.892804 5.03941,-6.17734 -25.44268,3.705484 -36.3885,0.725189"
       sodipodi:nodetypes="cssc"
       transform="matrix(0.77176846,0,0,0.75424798,90.815961,25.060784)" /><path
       style="fill:#000000;fill-opacity:0;stroke:#efb533;stroke-width:7.26806;stroke-linecap:round;stroke-dasharray:none;stroke-opacity:1"
       d="m 137.16647,99.214735 c 4.92352,-0.516819 10.02792,0.966015 13.90821,4.040345 3.88028,3.07433 6.49121,7.70431 7.11412,12.61553 0.62291,4.91123 -0.74946,10.04643 -3.73937,13.99213 -2.98991,3.94571 -7.56248,6.65591 -12.45913,7.38462 -1.90361,0.28329 -3.84994,0.27778 -5.75191,-0.0163"
       id="path19-4"
       inkscape:path-effect="#path-effect19-3"
       inkscape:original-d="m 137.16647,99.214735 c 0.50271,3.315625 9.53812,24.756765 4.82383,38.032625 -4.66223,13.12921 -2.59751,0.66179 -5.75191,-0.0163"
       sodipodi:nodetypes="csc"
       transform="matrix(1.0273741,-0.1129544,0.08982769,0.81702564,5.5552956,40.330747)" /><path
       style="fill:#000000;fill-opacity:0;stroke:#000000;stroke-width:5.5;stroke-linecap:round;stroke-dasharray:none"
       d="m 164.51232,82.256157 c 1.26718,-0.05656 2.52703,-0.275661 3.7389,-0.650248 4.12851,-1.276109 7.61673,-4.416526 9.42762,-8.340012 1.81088,-3.923485 1.94899,-8.563439 0.48864,-12.630432 -1.32624,-3.69351 -3.94556,-6.908353 -7.29494,-8.953494 -3.34937,-2.045141 -7.40574,-2.906496 -11.29718,-2.398917 -3.89144,0.50758 -7.59115,2.380598 -10.30387,5.216449 -2.71273,2.83585 -4.41979,6.615004 -4.75425,10.525127"
       id="path18"
       inkscape:path-effect="#path-effect18"
       inkscape:original-d="m 164.51232,82.256157 c 7.53201,6.448274 -3.79312,-7.098522 3.7389,-0.650248 7.53202,6.448277 4.87685,-14.793104 9.91626,-20.970444 5.03941,-6.17734 -22.70442,7.36946 -33.65024,4.389165"
       sodipodi:nodetypes="cssc"
       transform="translate(0,21.286817)" /><path
       style="fill:#000000;fill-opacity:0;stroke:#000000;stroke-width:5.5;stroke-linecap:round;stroke-dasharray:none"
       d="m 166.58497,82.093594 c 4.3813,-0.191272 8.81513,1.295475 12.19545,4.089367 3.38032,2.793893 5.6752,6.868539 6.31219,11.207509 0.63698,4.33897 -0.38996,8.90127 -2.82464,12.54884 -2.43469,3.64756 -6.25412,6.34593 -10.50553,7.42198 -2.89173,0.73191 -5.967,0.72625 -8.85602,-0.0163"
       id="path19"
       inkscape:path-effect="#path-effect19"
       inkscape:original-d="m 166.58497,82.093594 c -0.65024,4.98522 9.89176,21.991836 5.17747,35.267696 -4.66223,13.12921 -5.70162,0.66179 -8.85602,-0.0163"
       sodipodi:nodetypes="csc"
       transform="translate(0,21.286817)" /><path
       style="fill:#e5decf;fill-opacity:1;stroke:#e5decf;stroke-width:5.18293;stroke-linecap:round;stroke-dasharray:none;stroke-opacity:1"
       d="m 138.16357,150.39953 c -5.12051,0.7303 0.52474,0.55467 -4.62077,1.09426 -0.39799,2.89263 1.48345,-14.9945 -2.39707,24.37334 -0.89326,17.61452 -5.44641,70.13134 -3.65334,69.81792 2.45322,-0.10294 1.15346,-0.7482 3.49039,-1.17203 2.81629,-28.97599 4.80618,-54.57957 7.73106,-83.54687 0.041,-0.67096 -0.10829,-10.47408 -0.55027,-10.56662 z"
       id="path42-6"
       sodipodi:nodetypes="ccccccc" /><path
       style="fill:#aa0000;fill-opacity:0;stroke:#000000;stroke-width:4.5;stroke-linecap:round;stroke-dasharray:none"
       d="m 46.295477,147.04093 c -0.681844,-4.04714 10.789987,95.68414 15.006412,97.28128 6.687638,2.53321 88.302061,4.63463 88.570441,-0.73781 0.17612,-3.52542 15.47973,-97.14673 12.72283,-96.82493 -33.42202,3.9012 -65.979925,3.99762 -116.299683,0.28146 z"
       id="path20"
       sodipodi:nodetypes="csssc" /><circle
       style="fill:#000000;fill-opacity:0.999999;stroke:#000000;stroke-width:6.4;stroke-linecap:round;stroke-dasharray:none;stroke-opacity:1"
       id="path21"
       cx="70.429802"
       cy="112.36194"
       r="5" /><circle
       style="fill:#000000;fill-opacity:1;stroke:#000000;stroke-width:6.40001;stroke-linecap:round;stroke-dasharray:none"
       id="path21-8"
       cx="133.45512"
       cy="112.34496"
       r="5" /><path
       style="fill:#aa0000;fill-opacity:0;stroke:#000000;stroke-width:5.5;stroke-linecap:round;stroke-dasharray:none"
       d="m 67.04233,149.78991 9.648849,95.36261"
       id="path22"
       sodipodi:nodetypes="cc" /><path
       style="fill:#aa0000;fill-opacity:0;stroke:#000000;stroke-width:5.5;stroke-linecap:round;stroke-dasharray:none"
       d="m 90.666918,151.0453 3.209685,94.80382"
       id="path23"
       sodipodi:nodetypes="cc" /><path
       style="fill:#aa0000;fill-opacity:0;stroke:#000000;stroke-width:5.5;stroke-linecap:round;stroke-dasharray:none"
       d="m 118.6068,150.87041 -3.16192,95.17773"
       id="path24"
       sodipodi:nodetypes="cc" /><path
       style="fill:#aa0000;fill-opacity:0;stroke:#000000;stroke-width:5.5;stroke-linecap:round;stroke-dasharray:none"
       d="m 142.54942,149.60796 -8.88106,95.24602"
       id="path25"
       sodipodi:nodetypes="cc" /><path
       style="fill:none;fill-opacity:1;stroke:#efb533;stroke-width:5.02319;stroke-linecap:round;stroke-dasharray:none;stroke-opacity:1"
       d="m 119.69932,40.530103 c 4.71997,4.706491 2.09286,16.004088 -3.18799,21.502063 -4.42872,4.61081 -11.6005,5.085887 -19.372102,3.743656"
       id="path5-6-1"
       sodipodi:nodetypes="csc" /><path
       style="fill:#000000;fill-opacity:0;stroke:#f9f3ce;stroke-width:6.1;stroke-linecap:round;stroke-dasharray:none;stroke-opacity:1"
       d="m 89.121078,50.521923 c 0.25336,-0.278699 3.601763,-7.571039 9.33912,-11.943663 4.138832,-3.154336 9.134942,-4.513621 16.936682,-1.929853"
       id="path6-7-7"
       sodipodi:nodetypes="csc" /><path
       style="fill:none;fill-opacity:1;stroke:#000000;stroke-width:5.5;stroke-linecap:round;stroke-dasharray:none;stroke-opacity:1"
       d="m 95.911325,44.541869 c 2.741152,2.079211 6.099905,3.333402 9.532955,3.559697 3.43305,0.226294 6.92738,-0.576167 9.91773,-2.277577 2.99036,-1.70141 5.46541,-4.295318 7.0248,-7.362133 1.55938,-3.066816 2.19718,-6.59491 1.81023,-10.01358 -0.49602,-4.382288 -2.69941,-8.54884 -6.04221,-11.425674 -3.3428,-2.876834 -7.79114,-4.434804 -12.19842,-4.272324 -4.40728,0.16248 -8.728831,2.043765 -11.850728,5.158929 -3.121897,3.115164 -5.012507,7.432646 -5.184502,11.839562"
       id="path28"
       inkscape:path-effect="#path-effect28"
       inkscape:original-d="M 95.911325,44.541869 C 90.275858,41.940886 136.33497,29.098521 124.19704,28.448276 112.05911,27.798028 85.832511,27.527092 88.92118,29.748769"
       sodipodi:nodetypes="csc"
       transform="translate(0,21.286817)" /><path
       style="fill:none;fill-opacity:1;stroke:#000000;stroke-width:4.5;stroke-linecap:round;stroke-dasharray:none;stroke-opacity:1"
       d="m 48.698673,116.01082 c -1.009232,-0.54045 -1.842413,-1.40368 -2.346782,-2.43142 -0.504369,-1.02774 -0.677441,-2.21492 -0.487483,-3.34388 0.216538,-1.28693 0.907341,-2.48859 1.910491,-3.32331 1.00315,-0.83473 2.310348,-1.29562 3.615199,-1.27464"
       id="path46"
       inkscape:path-effect="#path-effect46"
       inkscape:original-d="m 48.698673,116.01082 c -1.954123,-2.56718 -4.213646,-2.86328 -2.834265,-5.7753 1.379381,-2.91203 2.460399,-5.28764 5.52569,-4.59795"
       transform="translate(-2.2989683,31.172378)"
       sodipodi:nodetypes="csc" /><path
       style="fill:none;fill-opacity:1;stroke:#000000;stroke-width:4.5;stroke-linecap:round;stroke-dasharray:none;stroke-opacity:1"
       d="m 58.001323,114.29476 c -0.97245,-1.01065 -1.507985,-2.42818 -1.446714,-3.82936 0.06259,-1.43132 0.748238,-2.82456 1.844166,-3.74735 1.095927,-0.92278 2.585574,-1.36117 4.006647,-1.17912"
       id="path46-7"
       inkscape:path-effect="#path-effect46-5"
       inkscape:original-d="m 58.001323,114.29476 c 38.431522,-4.14027 3.324239,-3.1885 -1.446714,-3.82936 -3.181956,-0.42741 11.315742,-4.73372 5.850813,-4.92647"
       transform="matrix(-1,0,0,1,221.31501,32.533988)"
       sodipodi:nodetypes="csc" /><path
       style="fill:none;fill-opacity:1;stroke:#000000;stroke-width:4.5;stroke-linecap:round;stroke-dasharray:none;stroke-opacity:1"
       d="m 48.5073,105.02294 c 17.639308,2.11953 35.388832,3.32152 53.15285,3.59948 19.34382,0.30268 38.70474,-0.4905 57.95898,-2.37449"
       id="path47"
       inkscape:path-effect="#path-effect47"
       inkscape:original-d="m 48.5073,105.02294 c 13.221673,1.51725 53.06849,16.20947 53.15285,3.59948 0.0492,-7.35128 45.59364,-5.24606 57.95898,-2.37449"
       sodipodi:nodetypes="csc"
       transform="translate(0,31.862069)" /><ellipse
       style="fill:none;fill-opacity:1;stroke:none;stroke-width:4.665;stroke-linecap:round;stroke-dasharray:none;stroke-opacity:1"
       id="path53"
       ry="0.69088668"
       rx="0.44704431"
       cy="109.11945"
       cx="67.09729" /><path
       style="fill:#ffffff;fill-opacity:1;stroke:#ffffff;stroke-width:2.065;stroke-linecap:round;stroke-dasharray:none;stroke-opacity:1"
       id="path54"
       sodipodi:type="arc"
       sodipodi:cx="66.827423"
       sodipodi:cy="107.67859"
       sodipodi:rx="0.060960591"
       sodipodi:ry="0.040640391"
       sodipodi:start="0"
       sodipodi:end="0.065458513"
       sodipodi:open="true"
       sodipodi:arc-type="arc"
       d="m 66.888384,107.67859 a 0.06096059,0.04064039 0 0 1 -1.31e-4,0.003" /><path
       style="fill:#ffffff;fill-opacity:1;stroke:#ffffff;stroke-width:2.065;stroke-linecap:round;stroke-dasharray:none;stroke-opacity:1"
       id="path54-8"
       sodipodi:type="arc"
       sodipodi:cx="129.89996"
       sodipodi:cy="107.94034"
       sodipodi:rx="0.060960591"
       sodipodi:ry="0.040640391"
       sodipodi:start="0"
       sodipodi:end="0.065458513"
       sodipodi:open="true"
       sodipodi:arc-type="arc"
       d="m 129.96092,107.94034 a 0.06096059,0.04064039 0 0 1 -1.3e-4,0.003" /><ellipse
       style="fill:#f9f3ce;fill-opacity:1;stroke:#f9f3ce;stroke-width:0;stroke-linecap:round;stroke-linejoin:round;stroke-opacity:1"
       id="path1"
       ry="4.183773"
       rx="3.8899248"
       cy="47.279125"
       cx="81.797112"
       transform="rotate(27.187166)" /><ellipse
       style="fill:#f9f3ce;fill-opacity:1;stroke:#f9f3ce;stroke-width:0;stroke-linecap:round;stroke-linejoin:round;stroke-opacity:1"
       id="path4"
       cx="84.749138"
       cy="138.72581"
       rx="5.9334974"
       ry="1.6256157"
       transform="rotate(3.8876906)" /><path
       style="fill:#000000;fill-opacity:0;stroke:#f9f3ce;stroke-width:5.5;stroke-linecap:round;stroke-dasharray:none;stroke-opacity:1"
       d="m 99.96776,53.892218 c 0.25336,-0.278699 0.2608,-1.927004 2.61463,-3.55243 1.40126,-0.96763 -2.35989,0.946427 3.3153,-1.929853"
       id="path6-7-7-3"
       sodipodi:nodetypes="csc" /></g></svg>
