<?xml version="1.0" encoding="UTF-8" standalone="no"?>
<svg
   id="Outline"
   viewBox="0 0 24 24"
   width="512"
   height="512"
   version="1.1"
   sodipodi:docname="cross-circle-white.svg"
   inkscape:version="1.4 (86a8ad7, 2024-10-11)"
   xmlns:inkscape="http://www.inkscape.org/namespaces/inkscape"
   xmlns:sodipodi="http://sodipodi.sourceforge.net/DTD/sodipodi-0.dtd"
   xmlns="http://www.w3.org/2000/svg"
   xmlns:svg="http://www.w3.org/2000/svg">
  <defs
     id="defs2" />
  <sodipodi:namedview
     id="namedview2"
     pagecolor="#ffffff"
     bordercolor="#000000"
     borderopacity="0.25"
     inkscape:showpageshadow="2"
     inkscape:pageopacity="0.0"
     inkscape:pagecheckerboard="0"
     inkscape:deskcolor="#d1d1d1"
     showgrid="false"
     inkscape:export-bgcolor="#ffffff0d"
     inkscape:zoom="3.5683594"
     inkscape:cx="256"
     inkscape:cy="256.14012"
     inkscape:window-width="3840"
     inkscape:window-height="2066"
     inkscape:window-x="2149"
     inkscape:window-y="612"
     inkscape:window-maximized="1"
     inkscape:current-layer="Outline" />
  <path
     d="M16,8a1,1,0,0,0-1.414,0L12,10.586,9.414,8A1,1,0,0,0,8,9.414L10.586,12,8,14.586A1,1,0,0,0,9.414,16L12,13.414,14.586,16A1,1,0,0,0,16,14.586L13.414,12,16,9.414A1,1,0,0,0,16,8Z"
     id="path1" />
  <path
     d="M12,0A12,12,0,1,0,24,12,12.013,12.013,0,0,0,12,0Zm0,22A10,10,0,1,1,22,12,10.011,10.011,0,0,1,12,22Z"
     id="path2" />
  <path
     style="fill:#ffffff;stroke:none;stroke-width:4.7663;stroke-linecap:round;stroke-linejoin:round"
     d="M 255.21948,-0.47837986 C 193.39224,-0.50713319 131.89567,22.938376 85.788674,64.132666 57.881754,88.911902 35.412019,119.78886 20.647815,154.07816 8.032441,182.93826 0.98320495,214.19797 -0.2943293,245.65517 -0.61043574,259.44188 -0.468104,273.2758 1.3720319,286.96524 7.7545026,340.47857 31.654996,391.7029 68.519315,431.00749 c 32.073345,34.41424 73.762355,59.76816 119.143055,72.21551 26.37761,7.34505 53.93609,10.35226 81.27852,8.95271 61.28218,-2.90809 121.17071,-28.84796 165.15235,-71.63673 33.89068,-32.6 58.53108,-74.69738 70.20182,-120.26146 5.53708,-21.60926 8.50999,-43.9328 8.10835,-66.25782 0.0595,-21.4214 -3.07296,-42.79711 -8.46726,-63.50492 C 491.21025,142.00164 463.74802,97.532802 426.20292,64.29645 386.84279,29.160132 336.37576,6.7478635 283.93118,1.0227868 c -9.52902,-1.08580734 -19.1231,-1.53087932 -28.7117,-1.50116666 z M 255.86152,43.44116 c 11.60053,-0.209794 23.10475,0.695062 34.54132,2.609196 44.34733,7.126454 86.23795,28.855224 117.62487,61.053884 26.80461,27.35716 46.01311,62.08872 54.89237,99.33418 2.83931,12.35011 4.83309,24.94426 5.48692,37.61054 0.18594,12.10575 0.54832,24.31973 -1.1076,36.33998 -2.97072,25.6714 -10.55746,50.7719 -22.6207,73.64835 -13.00632,25.40314 -31.50709,47.97373 -53.50664,66.1756 -23.03865,18.94431 -50.11527,32.93785 -78.79425,40.91149 -14.38423,3.89092 -29.16141,6.40022 -44.04568,7.22909 -11.98547,0.27685 -24.0459,0.62359 -35.94332,-0.91686 C 187.04489,462.47158 143.5343,442.43649 110.31212,411.09469 75.499248,378.48251 52.087853,333.796 45.483443,286.58344 c -1.371748,-9.13811 -2.177763,-18.35555 -2.03836,-27.59598 -0.07797,-9.61203 0.0093,-19.25231 1.377577,-28.77619 5.330957,-44.74325 25.466844,-87.64457 56.49261,-120.3295 28.24787,-30.042906 65.49325,-51.470361 105.64394,-60.895908 15.42701,-3.681737 31.29567,-5.704986 47.19514,-5.539204 0.56905,-0.0018 1.13811,-0.0037 1.70717,-0.0055 z"
     id="path7"
     transform="scale(0.046875)" />
  <path
     style="fill:#ffffff;stroke:none;stroke-width:4.7663;stroke-linecap:round;stroke-linejoin:round"
     d="m 325.64204,163.95731 c -5.76129,-0.0504 -11.35757,2.69649 -15.1585,6.97067 -18.33371,17.82827 -36.1856,36.14323 -54.48354,54.0036 -19.21016,-18.69411 -37.83203,-38.02039 -57.20963,-56.55774 -7.39254,-5.67407 -18.43836,-5.53926 -25.7881,0.14313 -8.18634,5.83716 -11.2357,17.66601 -6.77512,26.69868 2.04183,4.5545 6.2408,7.53687 9.47289,11.1856 16.31468,16.62896 32.966,32.93685 49.23154,49.59875 -18.69892,19.21478 -38.01815,37.82567 -56.55282,57.20361 -5.26436,6.8647 -5.5759,16.8939 -0.95347,24.17132 4.34723,7.25015 13.14843,11.52381 21.53841,10.23746 5.03953,-0.56001 9.6785,-3.24285 13.02281,-7.00463 18.1723,-17.67741 35.87922,-35.8395 54.01349,-53.53934 19.21016,18.69411 37.83203,38.02039 57.20963,56.55774 7.00978,5.4106 17.34917,5.56055 24.65025,0.63054 8.38355,-5.27997 12.32089,-16.66047 8.57307,-25.91406 -1.64618,-5.00882 -5.9631,-8.27279 -9.40597,-12.00248 C 320.47966,289.45452 303.57594,272.90926 287.06842,256 c 18.68596,-19.21005 38.01059,-37.79747 56.52928,-57.17406 5.82904,-7.03611 5.9003,-17.84871 0.69349,-25.25177 -4.08362,-6.05189 -11.29352,-9.98008 -18.64915,-9.61686 z"
     id="path8"
     transform="scale(0.046875)" />
</svg>
